<svg id="Слой_1" data-name="Слой 1" xmlns="http://www.w3.org/2000/svg" viewBox="0 0 370.84 323.87">
    <defs>
        <style>.cls-1{fill:#28265b;}</style>
    </defs>
    <path class="cls-1"
          d="M278.51,213.19c-19,1.8-41,7.9-59.5,16.6-85.1,40-126.7,136.3-97.5,226.1,8.7,26.6,26.9,55.6,47.2,75.5l5,4.8,1.2-12.3c2.4-24.8,9.4-51.4,17.9-68.4,5.1-10.2,14.4-22.7,20.8-28,9.3-7.8,23.2-15.4,28-15.4.9,0,4,2.2,7,4.9,17.6,16.1,43.8,23.3,67.2,18.5,14.1-2.9,29.7-10.8,38.9-19.7l4.2-4,4.3,1.2c23.8,7.1,43.6,30.2,54.2,62.9,4,12.4,8.1,31.9,9.2,43.2.3,4.1,1,8.1,1.4,8.8.5,1,2.6-.8,7.3-6a184.74,184.74,0,0,0,46.2-100.5c8.3-62.9-17.2-127.3-65.8-166.6C376.21,222.79,328.91,208.49,278.51,213.19Zm39.5,58.5a69,69,0,0,1,29.1,17.5c6.3,6.2,8.5,9.3,12.2,17,5.4,11.2,6.7,16.9,6.7,29.2,0,25-13.6,46.4-36.5,57.7-11.7,5.8-18.8,7.3-31.5,6.7-17.7-.8-30.3-6.3-42.9-18.7a64.54,64.54,0,0,1-15.9-24.8c-3.3-8.9-4.2-26.3-1.8-36.6,4.3-18,17.5-34.5,34.6-43a85.4,85.4,0,0,1,16.5-6.1C296.91,268.89,310.11,269.39,318,271.69Z"
          transform="translate(-112.22 -212.32)"/>
</svg>